<?xml version="1.0" encoding="UTF-8" standalone="no"?> <!-- Created with Vectornator for iOS (http://vectornator.io/) --><!DOCTYPE svg PUBLIC "-//W3C//DTD SVG 1.1//EN" "http://www.w3.org/Graphics/SVG/1.1/DTD/svg11.dtd">
<svg xmlns:xlink="http://www.w3.org/1999/xlink" xmlns:vectornator="http://vectornator.io" width="100%" version="1.1" xml:space="preserve" style="fill-rule:nonzero;clip-rule:evenodd;stroke-linecap:round;stroke-linejoin:round;" height="100%" xmlns="http://www.w3.org/2000/svg" viewBox="0 0 1200 400">
<metadata>
<vectornator:setting key="VNSnapToGuides" value="true"/>
<vectornator:setting key="WDOutlineMode" value="false"/>
<vectornator:setting value="false" key="WDDisplayWhiteBackground"/>
<vectornator:setting key="WDCMYKEnabledKey" value="false"/>
<vectornator:setting key="WDGuidesVisible" value="true"/>
<vectornator:setting key="VNDimensionsVisible" value="true"/>
<vectornator:setting value="false" key="UndoHistoryDisabled"/>
<vectornator:setting value="false" key="WDIsolateActiveLayer"/>
<vectornator:setting key="WDSnapToEdges" value="false"/>
<vectornator:setting value="false" key="WDDynamicGuides"/>
<vectornator:setting value="false" key="VNPencilOnly"/>
<vectornator:setting value="false" key="WDSnapToPoints"/>
<vectornator:setting key="WDRulersVisible" value="true"/>
<vectornator:setting value="Points" key="WDUnits"/>
<vectornator:setting key="IsTimeLapseWatermarkDisabled" value="false"/>
<vectornator:setting key="WDSnapToGrid" value="false"/>
</metadata>
<defs/>
<g id="logo" vectornator:layerName="logo">
<path d="M1114.4+177.469L1114.4+261.562L1187.27+303.608L1187.27+135.422L1114.4+177.469Z" fill="#307fe2" opacity="1"/>
<path d="M1041.51+219.515L968.633+261.562L968.633+345.655L1041.51+387.701L1041.51+219.515Z" fill="#307fe2" opacity="1"/>
<path opacity="1" d="M1041.51+303.608L1041.51+387.701L1187.27+303.608L1114.4+261.562L1041.51+303.608Z" fill="#41b6e6"/>
<path fill="#ffad00" opacity="1" d="M1041.51+94.1159L968.633+136.162L968.633+220.255L1041.51+178.209L1041.51+94.1159Z"/>
<path opacity="1" d="M1187.27+9.28305L1114.4+51.3295L1114.4+135.422L1187.27+93.3759L1187.27+9.28305Z" fill="#ffad00"/>
<path d="M321.001+290.221C302.646+307.555+281.124+316.222+256.434+316.222C231.744+316.222+211.332+308.609+195.198+293.382C179.074+278.178+171.013+257.772+171.013+232.163C171.013+206.554+179.226+186.186+195.652+171.061C211.366+156.228+232.237+148.097+253.844+148.389C276.269+148.389+295.268+155.145+310.842+168.656C326.416+182.167+334.226+200.712+334.27+224.292L334.27+248.477L215.767+248.477C217.177+257.353+222.216+265.244+229.676+270.257C237.414+275.84+246.742+278.788+256.283+278.666C272.216+278.666+285.323+273.318+295.605+262.621L321.001+290.221ZM277.39+193.749C270.982+188.445+262.866+185.648+254.55+185.878C245.667+185.849+237.016+188.719+229.911+194.052C222.621+199.209+217.888+207.242+216.91+216.118L288.272+216.118C287.307+206.453+283.68+198.997+277.39+193.749Z" fill="#307fe2" opacity="1"/>
<path opacity="1" fill="#307fe2" d="M494.501+226.108L494.501+316.222L448.839+316.222L448.839+224.897C448.839+211.992+446.871+202.517+442.935+196.474C439+190.43+432.648+187.403+423.88+187.392C415.114+187.392+406.719+190.934+400.603+197.214C393.876+203.773+390.512+213.405+390.512+226.108L390.512+316.222L345.102+316.222L345.102+151.097L390.512+151.097L390.512+169.598C403.002+155.481+417.315+148.429+433.45+148.44C443.507+148.365+453.318+151.545+461.419+157.505C469.46+163.178+475.957+170.769+480.323+179.588C486.492+169.779+495.213+161.832+505.551+156.597C515.388+151.338+526.352+148.54+537.506+148.44C556.657+148.44+572.08+154.136+583.774+165.528C595.469+176.919+601.316+193.396+601.316+214.957L601.316+316.222L555.586+316.222L555.586+224.897C555.586+199.882+546.414+187.381+528.071+187.392C519.213+187.325+510.71+190.872+504.525+197.214C497.854+203.773+494.512+213.404+494.501+226.108Z"/>
<path d="M861.297+151.097L861.297+238.857C861.297+251.347+857.973+260.878+851.324+267.448C845.144+273.797+836.638+277.345+827.778+277.27C809.446+277.27+800.274+264.774+800.263+239.782L800.263+151.097L707.491+151.097L657.389+204.631L657.389+80.762C652.949+83.3016+613.98+105.99+611.979+107.066L611.979+316.222L657.389+316.222L657.389+266.927L672.206+251.504L715.245+316.222L769.064+316.222L703.035+216.723C720.201+198.582+737.367+180.423+754.533+162.248L754.533+249.705C754.533+271.681+760.582+288.264+772.68+299.454C784.778+310.644+799.747+316.25+817.586+316.272C835.425+316.272+850.001+308.306+861.314+292.373L861.314+316.222L906.993+316.222L906.993+151.097L861.297+151.097Z" fill="#307fe2" opacity="1"/>
<path fill="#307fe2" d="M9.97472+107.823L9.97472+126.996L9.97472+126.996L9.97472+149.533L57.1676+122.287L57.1676+103.047L57.1676+103.047L57.1676+80.762L9.97472+107.823Z" opacity="1"/>
<path opacity="1" d="M166.64+269.416C163.944+272.032+160.713+274.035+157.171+275.286C154.537+276.17+151.775+276.613+148.997+276.598C144.577+276.615+140.374+274.683+137.51+271.316C134.281+267.785+132.666+262.896+132.666+256.651L132.666+183.759L171.988+183.759L171.988+151.097L132.75+151.097L132.75+105.687L87.0038+132.059L87.0038+151.097L67.9483+151.097L67.9483+183.759L87.0038+183.759L87.0038+258.77C87.0038+276.508+92.3969+290.523+103.183+300.816C107.478+304.948+112.413+308.356+117.799+310.907C125.648+314.516+134.203+316.332+142.841+316.222C164.706+316.02+180.095+303.574+185.443+298.714C177.2+290.366+170.795+280.387+166.64+269.416Z" fill="#307fe2"/>
<path opacity="1" d="M9.97472+176.443L9.97472+316.222L57.1676+316.222L57.1676+149.197L9.97472+176.443Z" fill="#307fe2"/>
</g>
</svg>
